<svg xmlns="http://www.w3.org/2000/svg" width="155.8" height="53.9"><path d="M155.6 18.8c-.8-2.3-1.4-4.6-1.9-7-.3-1.7-.5-3.5-.9-5.2-.4-1.7-1.2-3.3-2.4-4.5-.6-.7-1.4-1.2-2.2-1.6-1.7-.9-2.9-.4-4.5.4-8.4 4.3-16.9 8.6-25.4 12.8-1.5.7-1.9 2.8-1.1 4.1.9 1.5 2.6 1.8 4.1 1.1l15.6-7.8c-5.8 5.7-11.9 11.1-19 15.1-8.7 4.9-18.3 8.6-27.9 11.4-18.4 5.2-37.5 7.5-56.5 9-10.2.8-20.5 1.3-30.7 1.4-3.9 0-3.9 6 0 6 19.4-.2 38.9-1.7 58.1-4.4 19.5-2.8 38.9-7.2 56.6-16.3 5.8-3 11.1-6.6 16.1-10.8 4.7-4 9-8.5 13.3-12.9.1-.1.2-.3.3-.4.1.4.1.7.2 1.1.5 3.5 1.3 6.9 2.4 10.3.5 1.5 2.1 2.5 3.7 2.1 1.5-.6 2.6-2.3 2.1-3.9z" fill="#65acdb"/></svg>